<mxfile host="Electron" agent="Mozilla/5.0 (X11; Linux x86_64) AppleWebKit/537.36 (KHTML, like Gecko) draw.io/26.0.16 Chrome/132.0.6834.196 Electron/34.2.0 Safari/537.36" version="26.0.16">
  <diagram name="Page-1" id="P2VuuEW1C5tOJ5vnml3l">
    <mxGraphModel dx="1434" dy="835" grid="1" gridSize="10" guides="1" tooltips="1" connect="1" arrows="1" fold="1" page="1" pageScale="1" pageWidth="827" pageHeight="1169" math="0" shadow="0">
      <root>
        <mxCell id="0" />
        <mxCell id="1" parent="0" />
        <mxCell id="D4ARsaFisRdA81yT0vwc-4" style="edgeStyle=orthogonalEdgeStyle;rounded=0;orthogonalLoop=1;jettySize=auto;html=1;exitX=1;exitY=0.75;exitDx=0;exitDy=0;entryX=0;entryY=0.75;entryDx=0;entryDy=0;" parent="1" source="D4ARsaFisRdA81yT0vwc-2" target="D4ARsaFisRdA81yT0vwc-3" edge="1">
          <mxGeometry relative="1" as="geometry" />
        </mxCell>
        <mxCell id="D4ARsaFisRdA81yT0vwc-7" style="edgeStyle=orthogonalEdgeStyle;rounded=0;orthogonalLoop=1;jettySize=auto;html=1;" parent="1" source="D4ARsaFisRdA81yT0vwc-2" target="D4ARsaFisRdA81yT0vwc-6" edge="1">
          <mxGeometry relative="1" as="geometry" />
        </mxCell>
        <mxCell id="D4ARsaFisRdA81yT0vwc-2" value="&lt;div&gt;&lt;span style=&quot;background-color: transparent;&quot;&gt;Editare&lt;/span&gt;&lt;/div&gt;" style="html=1;whiteSpace=wrap;fillColor=#a0522d;strokeColor=#6D1F00;fontColor=#FFFFFF;" parent="1" vertex="1">
          <mxGeometry x="80" y="70" width="110" height="60" as="geometry" />
        </mxCell>
        <mxCell id="D4ARsaFisRdA81yT0vwc-5" style="edgeStyle=orthogonalEdgeStyle;rounded=0;orthogonalLoop=1;jettySize=auto;html=1;entryX=1;entryY=0.25;entryDx=0;entryDy=0;exitX=0;exitY=0.25;exitDx=0;exitDy=0;" parent="1" source="D4ARsaFisRdA81yT0vwc-3" target="D4ARsaFisRdA81yT0vwc-2" edge="1">
          <mxGeometry relative="1" as="geometry" />
        </mxCell>
        <mxCell id="D4ARsaFisRdA81yT0vwc-3" value="&lt;div&gt;&lt;span style=&quot;background-color: transparent;&quot;&gt;&lt;font style=&quot;&quot;&gt;&amp;lt;&amp;lt;Dialog&amp;gt;&amp;gt;&lt;/font&gt;&lt;/span&gt;&lt;/div&gt;&lt;div&gt;&lt;span style=&quot;background-color: transparent;&quot;&gt;&lt;font style=&quot;&quot;&gt;Setări&lt;/font&gt;&lt;/span&gt;&lt;/div&gt;" style="html=1;whiteSpace=wrap;fillColor=#a0522d;fontColor=#FFFFFF;strokeColor=#6D1F00;" parent="1" vertex="1">
          <mxGeometry x="330" y="70" width="110" height="60" as="geometry" />
        </mxCell>
        <mxCell id="D4ARsaFisRdA81yT0vwc-8" value="DA" style="edgeStyle=orthogonalEdgeStyle;rounded=0;orthogonalLoop=1;jettySize=auto;html=1;" parent="1" source="D4ARsaFisRdA81yT0vwc-6" target="D4ARsaFisRdA81yT0vwc-9" edge="1">
          <mxGeometry x="-0.6774" relative="1" as="geometry">
            <mxPoint x="320" y="250" as="targetPoint" />
            <mxPoint as="offset" />
          </mxGeometry>
        </mxCell>
        <mxCell id="D4ARsaFisRdA81yT0vwc-13" value="NU" style="edgeStyle=orthogonalEdgeStyle;rounded=0;orthogonalLoop=1;jettySize=auto;html=1;" parent="1" source="D4ARsaFisRdA81yT0vwc-6" target="D4ARsaFisRdA81yT0vwc-10" edge="1">
          <mxGeometry x="-0.6" relative="1" as="geometry">
            <mxPoint as="offset" />
          </mxGeometry>
        </mxCell>
        <mxCell id="D4ARsaFisRdA81yT0vwc-6" value="E logat" style="rhombus;whiteSpace=wrap;html=1;" parent="1" vertex="1">
          <mxGeometry x="95" y="210" width="80" height="80" as="geometry" />
        </mxCell>
        <mxCell id="D4ARsaFisRdA81yT0vwc-19" style="edgeStyle=orthogonalEdgeStyle;rounded=0;orthogonalLoop=1;jettySize=auto;html=1;exitX=0.5;exitY=0;exitDx=0;exitDy=0;entryX=0.75;entryY=1;entryDx=0;entryDy=0;" parent="1" source="D4ARsaFisRdA81yT0vwc-9" target="D4ARsaFisRdA81yT0vwc-2" edge="1">
          <mxGeometry relative="1" as="geometry" />
        </mxCell>
        <mxCell id="D4ARsaFisRdA81yT0vwc-9" value="&lt;div&gt;&lt;span style=&quot;background-color: transparent;&quot;&gt;Cloud&lt;/span&gt;&lt;/div&gt;" style="rounded=0;whiteSpace=wrap;html=1;fillColor=#a0522d;fontColor=default;strokeColor=#6D1F00;" parent="1" vertex="1">
          <mxGeometry x="330" y="220" width="110" height="60" as="geometry" />
        </mxCell>
        <mxCell id="D4ARsaFisRdA81yT0vwc-14" style="edgeStyle=orthogonalEdgeStyle;rounded=0;orthogonalLoop=1;jettySize=auto;html=1;exitX=0.25;exitY=1;exitDx=0;exitDy=0;entryX=0.25;entryY=0;entryDx=0;entryDy=0;" parent="1" source="D4ARsaFisRdA81yT0vwc-10" target="D4ARsaFisRdA81yT0vwc-11" edge="1">
          <mxGeometry relative="1" as="geometry" />
        </mxCell>
        <mxCell id="D4ARsaFisRdA81yT0vwc-16" style="edgeStyle=orthogonalEdgeStyle;rounded=0;orthogonalLoop=1;jettySize=auto;html=1;exitX=1;exitY=0.75;exitDx=0;exitDy=0;entryX=0;entryY=0.75;entryDx=0;entryDy=0;" parent="1" source="D4ARsaFisRdA81yT0vwc-10" target="D4ARsaFisRdA81yT0vwc-12" edge="1">
          <mxGeometry relative="1" as="geometry" />
        </mxCell>
        <mxCell id="D4ARsaFisRdA81yT0vwc-18" style="edgeStyle=orthogonalEdgeStyle;rounded=0;orthogonalLoop=1;jettySize=auto;html=1;exitX=0;exitY=0.5;exitDx=0;exitDy=0;entryX=0.5;entryY=0;entryDx=0;entryDy=0;" parent="1" source="D4ARsaFisRdA81yT0vwc-10" target="D4ARsaFisRdA81yT0vwc-6" edge="1">
          <mxGeometry relative="1" as="geometry">
            <Array as="points">
              <mxPoint x="60" y="420" />
              <mxPoint x="60" y="180" />
              <mxPoint x="135" y="180" />
            </Array>
          </mxGeometry>
        </mxCell>
        <mxCell id="D4ARsaFisRdA81yT0vwc-10" value="&lt;span style=&quot;background-color: transparent;&quot;&gt;Login&lt;/span&gt;" style="rounded=0;whiteSpace=wrap;html=1;fillColor=#a0522d;fontColor=#FFFFFF;strokeColor=#6D1F00;" parent="1" vertex="1">
          <mxGeometry x="80" y="390" width="110" height="60" as="geometry" />
        </mxCell>
        <mxCell id="D4ARsaFisRdA81yT0vwc-15" style="edgeStyle=orthogonalEdgeStyle;rounded=0;orthogonalLoop=1;jettySize=auto;html=1;exitX=0.75;exitY=0;exitDx=0;exitDy=0;entryX=0.75;entryY=1;entryDx=0;entryDy=0;" parent="1" source="D4ARsaFisRdA81yT0vwc-11" target="D4ARsaFisRdA81yT0vwc-10" edge="1">
          <mxGeometry relative="1" as="geometry" />
        </mxCell>
        <mxCell id="D4ARsaFisRdA81yT0vwc-11" value="&lt;span style=&quot;background-color: transparent;&quot;&gt;Înregistrare&lt;/span&gt;" style="rounded=0;whiteSpace=wrap;html=1;fillColor=#a0522d;fontColor=#FFFFFF;strokeColor=#6D1F00;" parent="1" vertex="1">
          <mxGeometry x="80" y="525" width="110" height="60" as="geometry" />
        </mxCell>
        <mxCell id="D4ARsaFisRdA81yT0vwc-17" style="edgeStyle=orthogonalEdgeStyle;rounded=0;orthogonalLoop=1;jettySize=auto;html=1;exitX=0;exitY=0.25;exitDx=0;exitDy=0;entryX=1;entryY=0.25;entryDx=0;entryDy=0;" parent="1" source="D4ARsaFisRdA81yT0vwc-12" target="D4ARsaFisRdA81yT0vwc-10" edge="1">
          <mxGeometry relative="1" as="geometry" />
        </mxCell>
        <mxCell id="D4ARsaFisRdA81yT0vwc-12" value="&lt;span style=&quot;background-color: transparent;&quot;&gt;Am uitat parola&lt;/span&gt;" style="rounded=0;whiteSpace=wrap;html=1;fillColor=#a0522d;fontColor=#FFFFFF;strokeColor=#6D1F00;" parent="1" vertex="1">
          <mxGeometry x="290" y="390" width="110" height="60" as="geometry" />
        </mxCell>
      </root>
    </mxGraphModel>
  </diagram>
</mxfile>
